<svg xmlns="http://www.w3.org/2000/svg" width="20" height="20" fill="none" stroke="#FFFFFF"><path stroke="#FFF" stroke-linecap="round" stroke-miterlimit="10" stroke-width="1.5" d="M1 4.322h2.547c.075 0 .15.062.162.137l1.336 8.566c0 .075.075.137.162.137H16.82a.16.16 0 0 0 .162-.137l1.586-8.304"></path><path fill="#FFF" d="M6.732 18.658a2.035 2.035 0 1 0 0-4.07 2.035 2.035 0 0 0 0 4.07zm8.541 0a2.035 2.035 0 1 0 0-4.07 2.035 2.035 0 0 0 0 4.07z"></path><g stroke="#FFF" stroke-linecap="round" stroke-width="2"><path d="M11 3v6M8 6h6"></path></g></svg>