<svg xmlns="http://www.w3.org/2000/svg" width="48" height="48" fill="#3C3C43"><path d="M19.331 21.7a.977.977 0 0 0 .978.978h8.142a.978.978 0 0 0 0-1.955h-8.142a.977.977 0 0 0-.978.977Z"></path><path d="M43.895 15.594a.827.827 0 0 0-.069-.333v-.173L38.87 6.946a1 1 0 0 0-.84-.471H11.132a.966.966 0 0 0-.84.483L5.451 15.1v.16a1.08 1.08 0 0 0-.07.334V40.02a.977.977 0 0 0 .978.978h36.616a.977.977 0 0 0 .978-.978V15.594h-.058Zm-2.714-.977H25.357V8.43H37.41l3.772 6.187ZM11.684 8.43h11.741v6.187H8.015l3.669-6.187ZM41.94 39.043H7.325V16.572H41.94v22.47Z"></path></svg>