<svg xmlns="http://www.w3.org/2000/svg" width="49" height="48" fill="#3C3C43"><path d="M43.067 7.624h-7.21V4.53a.978.978 0 0 0-1.956 0v3.094H15.467V4.53a.978.978 0 0 0-1.955 0v3.094h-7.13a.978.978 0 0 0-.978.977V41.17a.977.977 0 0 0 .978.978h36.685a.978.978 0 0 0 .977-.978V8.601a.978.978 0 0 0-.977-.977Zm-.978 1.955v6.187H7.417V9.579h34.672ZM7.417 40.192V17.72h34.615v22.47H7.417Z"></path><path d="M15.72 26.209H13.8a.977.977 0 1 1 0-1.955h1.92a.978.978 0 0 1 0 1.955ZM22.367 26.209h-1.943a.977.977 0 1 1 0-1.955h1.943a.978.978 0 0 1 0 1.955ZM28.968 26.209h-1.91a.977.977 0 1 1 0-1.955h1.91a.978.978 0 0 1 0 1.955ZM35.604 26.209h-1.92a.977.977 0 1 1 0-1.955h1.92a.978.978 0 0 1 0 1.955ZM15.72 33.648H13.8a.978.978 0 1 1 0-1.943h1.92a.976.976 0 1 1 0 1.944ZM22.367 33.648h-1.944a.978.978 0 1 1 0-1.943h1.944a.976.976 0 1 1 0 1.944ZM28.968 33.648h-1.909a.978.978 0 1 1 0-1.943h1.909a.976.976 0 0 1 .759 1.7.976.976 0 0 1-.759.243ZM35.603 33.648h-1.92a.978.978 0 1 1 0-1.943h1.92a.976.976 0 1 1 0 1.944Z"></path></svg>