<svg xmlns="http://www.w3.org/2000/svg" xmlns:xlink="http://www.w3.org/1999/xlink" width="48" height="48" fill="none" viewBox="0 0 24 24" stroke="#3C3C43"><g stroke-miterlimit="10"><path d="M2.311 3.06h13.094c.173 0 .303.14.303.303v10.815H2.009V3.363c0-.173.14-.303.303-.303z"></path><path d="M8.47 18.79h6.428m3.878 0h3.058a.205.205 0 0 0 .205-.205v-3.328l-2.507-6.331a.27.27 0 0 0-.238-.162h-3.576v5.424H2.009v4.408c0 .119.097.205.205.205H4.58"></path><use xlink:href="#24px_delivery_stroke1_svg__a"></use><use xlink:href="#24px_delivery_stroke1_svg__a" x="10.382"></use></g><defs><path id="24px_delivery_stroke1_svg__a" d="M6.471 20.4a1.783 1.783 0 1 0 0-3.565 1.783 1.783 0 0 0 0 3.565z"></path></defs></svg>