<svg xmlns="http://www.w3.org/2000/svg" xmlns:xlink="http://www.w3.org/1999/xlink" width="16" height="16" fill="none" stroke="#3C3C43"><g stroke="#3c3c43" stroke-miterlimit="10" stroke-width="1.5" clip-path="url(#16px_filter_svg__a)"><path stroke-linecap="round" d="M7.328 2.794h7.45m-13.578 0h2.481"></path><path d="M5.475 4.588a1.794 1.794 0 1 0 0-3.587 1.794 1.794 0 0 0 0 3.587z"></path><path stroke-linecap="round" d="M7.321 13.006h7.457m-13.578 0h2.481"></path><use xlink:href="#16px_filter_svg__b"></use><path stroke-linecap="round" d="M8.687 7.896H1.2m13.579 0h-2.481"></path><path d="M10.503 9.691a1.794 1.794 0 1 0 0-3.587 1.794 1.794 0 0 0 0 3.587z"></path></g><defs><clipPath id="16px_filter_svg__a"><path fill="#fff" d="M0 0h16v16H0z"></path></clipPath><path id="16px_filter_svg__b" d="M5.475 14.8a1.794 1.794 0 1 0 0-3.587 1.794 1.794 0 0 0 0 3.587z"></path></defs></svg>