<svg xmlns="http://www.w3.org/2000/svg"  viewBox="0 0 48 48" width="48px" height="48px" baseProfile="basic"><path d="M43.247,20.475c-0.098-0.462-0.505-0.793-0.977-0.793l-17.906-0.027c0,0-0.001,0-0.001,0c-0.265,0-0.519,0.105-0.707,0.292	c-0.188,0.188-0.293,0.442-0.293,0.708v9.262c0,0.552,0.448,1,1,1h7.669c-1.77,2.255-4.451,3.544-7.669,3.544	c-5.433,0-9.908-4.16-10.414-9.46c0.506-5.3,4.981-9.46,10.414-9.46c2.486,0,4.9,0.896,6.798,2.521	c0.397,0.34,0.989,0.318,1.358-0.052l5.347-5.347c0.193-0.193,0.299-0.457,0.292-0.73c-0.006-0.273,0.006-1.727,0-2	c-0.006-0.273-0.124-0.532-0.326-0.716C34.139,5.853,29.356,4,24.362,4C13.332,4,4.358,12.972,4.358,24c0,0.338,0,1.662,0,2	c0,11.028,8.974,20,20.004,20c6.393,0,11.562-2.207,14.948-6.383c3.332-4.11,4.511-9.561,4.312-14.062	C43.706,23.724,43.566,21.986,43.247,20.475z"/><path fill="#fff" d="M24.362,20.654v7.262h10.343c-1.354,4.399-5.028,7.544-10.343,7.544 c-6.332,0-11.465-5.133-11.465-11.46s5.133-11.46,11.465-11.46c2.845,0,5.443,1.044,7.449,2.762l5.347-5.347 C33.78,6.878,29.29,5,24.362,5C13.869,5,5.358,13.506,5.358,24s8.511,19,19.005,19c16.616,0,19.47-14.916,17.906-22.319 L24.362,20.654z"/><path d="M24.362,44c-11.03,0-20.004-8.972-20.004-20S13.332,4,24.362,4c4.994,0,9.777,1.853,13.469,5.216 c0.202,0.184,0.32,0.443,0.326,0.716c0.006,0.273-0.099,0.537-0.292,0.73l-5.347,5.347c-0.369,0.37-0.961,0.392-1.358,0.052 c-1.897-1.626-4.312-2.521-6.798-2.521c-5.771,0-10.465,4.692-10.465,10.46s4.694,10.46,10.465,10.46 c4.08,0,7.319-2.046,8.899-5.544h-8.899c-0.552,0-1-0.448-1-1v-7.262c0-0.266,0.105-0.52,0.293-0.708 c0.188-0.188,0.441-0.292,0.707-0.292c0,0,0.001,0,0.001,0l17.906,0.027c0.472,0,0.879,0.332,0.977,0.793 c1.025,4.852,0.205,12.034-3.937,17.143C35.924,41.793,30.755,44,24.362,44z M24.362,6C14.435,6,6.358,14.075,6.358,24 s8.077,18,18.004,18c5.852,0,10.358-1.898,13.394-5.643c3.509-4.327,4.364-10.328,3.679-14.678l-16.073-0.024v5.261h9.343 c0.317,0,0.616,0.151,0.804,0.406c0.189,0.255,0.245,0.585,0.151,0.888c-1.566,5.089-5.896,8.25-11.299,8.25 c-6.873,0-12.465-5.589-12.465-12.46s5.592-12.46,12.465-12.46c2.654,0,5.238,0.855,7.372,2.425l3.955-3.955 C32.488,7.417,28.506,6,24.362,6z"/></svg>