<svg xmlns="http://www.w3.org/2000/svg" width="12" height="15">
    <path fill-rule="evenodd" fill="#666" d="M9.527 15H1.681A1.682 1.682 0 0 1 0 13.319V7.715c0-.929.753-1.682 1.681-1.682h7.846c.928 0 1.681.753 1.681 1.682v5.604c0 .928-.753 1.681-1.681 1.681zM5.604 8.836a1.118 1.118 0 0 0-.56 2.086v1.276a.56.56 0 0 0 1.12 0v-1.276a1.118 1.118 0 0 0-.56-2.086zm2.242-3.97c0-1.029-.291-2.755-2.242-2.755-2.023 0-2.241 1.927-2.241 2.755v.607H1.681v-.607c0-2.695 1.54-4.437 3.923-4.437s3.923 1.742 3.923 4.437v.607H7.846v-.607z"/>
</svg>