<svg xmlns="http://www.w3.org/2000/svg" width="20" height="20" fill="none" stroke="#3C3C43"><g stroke-linejoin="round" stroke-width="1.5" clip-path="url(#20px_good_svg__a)"><path d="M5.574 8.482a1.79 1.79 0 0 1 .43-1.163l4.282-5a1.28 1.28 0 0 1 1.544-.312 1.15 1.15 0 0 1 .578 1.395l-1.472 4.419h4.114a1.783 1.783 0 0 1 1.728 1.33c.067.253.077.518.031.775l-1.135 6.257a1.79 1.79 0 0 1-1.759 1.468H7.361a1.79 1.79 0 0 1-1.787-1.787V8.482zM2 16.758V8.714"></path></g><defs><clipPath id="20px_good_svg__a"><path d="M0 0h20v20H0z"></path></clipPath></defs></svg>