<svg xmlns="http://www.w3.org/2000/svg" width="20" height="16">
    <path fill-rule="evenodd" fill="#666" d="M17.5 16h-15A2.502 2.502 0 0 1 0 13.5v-11C0 1.121 1.121 0 2.5 0h15C18.879 0 20 1.121 20 2.5v11c0 1.379-1.121 2.5-2.5 2.5zM2.5 1c-.21 0-.408.044-.59.122l7.891 7.891 7.96-7.96C17.673 1.037 17.592 1 17.5 1h-15zM19 2.5c0-.355-.142-.667-.348-.924l-8.498 8.497a.495.495 0 0 1-.707 0L1.188 1.814C1.078 2.022 1 2.248 1 2.5v11c0 .367.148.691.367.952L6.03 9.79a.5.5 0 0 1 .707.707l-4.459 4.458c.076.012.143.045.222.045h14.461l-4.252-4.252a.5.5 0 0 1 .707-.707l4.771 4.771c.477-.252.813-.737.813-1.312v-11z"/>
</svg>