<svg xmlns="http://www.w3.org/2000/svg" width="16" height="16" fill="#7F0019"><g clip-path="url(#16px_support_svg__a)"><path d="M8 1.477a6.523 6.523 0 1 0 0 13.046A6.523 6.523 0 0 0 8 1.477ZM-.023 8a8.023 8.023 0 1 1 16.046 0A8.023 8.023 0 0 1-.023 8Z" clip-rule="evenodd"></path><path d="M8 12.48a.727.727 0 0 1-.727-.729V7.306a.727.727 0 0 1 1.454 0v4.445a.727.727 0 0 1-.727.727M8 5.451a.985.985 0 0 1-.97-.97.97.97 0 1 1 1.94 0 .985.985 0 0 1-.97.97Z"></path></g><defs><clipPath id="16px_support_svg__a"><path fill="#fff" d="M0 0h16v16H0z"></path></clipPath></defs></svg>