<svg xmlns="http://www.w3.org/2000/svg" width="17" height="18">
    <path fill-rule="evenodd" fill="#666" d="M12.996 18c-1.549 0-5.078-1.858-8.069-5.985C2.19 8.241.859 5.483.859 3.583c0-1.674 1.131-2.47 1.674-2.853l.12-.087C3.29.176 4.264 0 4.728 0c.656 0 1.142.319 1.446.948.124.253 1.193 2.602 1.312 2.926.228.613.145 1.515-.573 2.042l-.098.068c-.148.107-.547.393-.581.593-.011.073.054.184.11.263.865 1.194 3.429 4.436 3.849 4.84.129.125.333.228.468.111.258-.223.394-.368.428-.406l.201-.165c.185-.123.499-.276.925-.276.411 0 .818.138 1.209.408l2.627 1.813c.49.427.781 1.261.324 2.16C15.992 16.07 14.64 18 12.996 18zM4.728 1c-.301 0-1.042.132-1.473.449l-.129.093c-.471.331-1.253.882-1.253 2.041 0 1.661 1.305 4.302 3.877 7.849C8.602 15.367 11.876 17 12.996 17c.977 0 2.093-1.385 2.473-2.125.277-.544-.003-.874-.073-.945l-2.554-1.759c-.455-.315-.946-.156-1.012-.103a6.293 6.293 0 0 1-.501.475c-.52.452-1.279.391-1.841-.145-.533-.51-3.207-3.925-3.97-4.979-.24-.337-.335-.671-.285-.998.1-.612.678-1.025.988-1.247l.095-.067c.314-.23.304-.66.218-.89-.101-.275-1.146-2.576-1.274-2.837-.139-.288-.268-.38-.532-.38z"/>
</svg>