<svg class="svgInit" xmlns="http://www.w3.org/2000/svg" id="icon__" data-name="icon_?" width="20" height="20" viewBox="0 0 20 20"><path id="パス_11127" data-name="パス 11127" d="M36.18,18.25A8.25,8.25,0,1,1,44.43,10,8.259,8.259,0,0,1,36.18,18.25Zm0-15A6.75,6.75,0,1,0,42.93,10,6.758,6.758,0,0,0,36.18,3.25Z" transform="translate(-26.18)" fill="#3c3c43"></path><rect id="長方形_18950" data-name="長方形 18950" width="20" height="20" fill="none"></rect><path id="パス_11128" data-name="パス 11128" d="M36.18,15.14a.727.727,0,0,1-.21-.031.788.788,0,0,1-.21-.059,1.14,1.14,0,0,1-.19-.1,1.217,1.217,0,0,1-.17-.14,1.135,1.135,0,0,1-.24-.36,1.166,1.166,0,0,1-.08-.42,1.1,1.1,0,0,1,.32-.77,1.133,1.133,0,0,1,1.56,0,.967.967,0,0,1,.13.16,1.846,1.846,0,0,1,.11.189,1.755,1.755,0,0,1,.06.21,1.52,1.52,0,0,1,.02.211,1.166,1.166,0,0,1-.08.42,1.868,1.868,0,0,1-.11.2.883.883,0,0,1-.13.161A1.107,1.107,0,0,1,36.18,15.14Z" transform="translate(-26.18)" fill="#3c3c43"></path><path id="パス_11129" data-name="パス 11129" d="M36.18,12.341a.9.9,0,0,1-.9-.9v-.561a2.034,2.034,0,0,1,1.321-1.7c.663-.376,1.009-.6,1.009-1.281a1.431,1.431,0,0,0-2.86,0,.9.9,0,1,1-1.8,0,3.23,3.23,0,0,1,6.459,0,3.1,3.1,0,0,1-1.923,2.847c-.129.073-.311.176-.407.247v.448A.9.9,0,0,1,36.18,12.341Z" transform="translate(-26.18)" fill="#3c3c43"></path></svg>