<svg xmlns="http://www.w3.org/2000/svg" width="20" height="20" fill="none"><g clip-path="url(#20px_star_BEIGE_svg__a)"><path fill="#E0CEAA" d="M18.19 8.09a.75.75 0 0 0-.72-.52h-5.16l-1.6-4.91a.74.74 0 0 0-.71-.531.74.74 0 0 0-.71.531l-1.6 4.91H2.53a.75.75 0 0 0-.72.52.74.74 0 0 0 .28.84l4.17 3-1.59 4.95a.75.75 0 0 0 .27.83.72.72 0 0 0 .88 0l4.18-3 4.18 3a.71.71 0 0 0 .44.15.73.73 0 0 0 .44-.15.75.75 0 0 0 .27-.83L13.74 12l4.17-3a.74.74 0 0 0 .28-.91z"></path></g><defs><clipPath id="20px_star_BEIGE_svg__a"><path fill="#fff" d="M0 0h20v20H0z"></path></clipPath></defs></svg>